<svg xmlns="http://www.w3.org/2000/svg" version="1.1" xmlns:xlink="http://www.w3.org/1999/xlink" width="200" height="200"><path d="M175 133.3333324591319V66.66666579246521A16.666666666666668 16.666666666666668 0 0 0 166.66666666666666 52.24999912579854L108.33333333333333 18.916665792465206A16.666666666666668 16.666666666666668 0 0 0 91.66666666666667 18.916665792465206L33.333333333333336 52.24999912579854A16.666666666666668 16.666666666666668 0 0 0 25 66.66666579246521V133.3333324591319A16.666666666666668 16.666666666666668 0 0 0 33.333333333333336 147.74999912579855L91.66666666666667 181.0833324591319A16.666666666666668 16.666666666666668 0 0 0 108.33333333333333 181.0833324591319L166.66666666666666 147.74999912579855A16.666666666666668 16.666666666666668 0 0 0 175 133.3333324591319Z " fill-opacity="0" stroke-width="20" stroke="#238f9d"></path><path d="M150 77.77777624130249A11.11111111111111 11.11111111111111 0 0 0 144.44444444444446 68.16666513019138L105.55555555555556 45.944442907969155A11.11111111111111 11.11111111111111 0 0 0 94.44444444444444 45.944442907969155L55.55555555555556 68.16666513019138A11.11111111111111 11.11111111111111 0 0 0 50 77.77777624130249V122.22222068574693A11.11111111111111 11.11111111111111 0 0 0 55.55555555555556 131.83333179685806L94.44444444444444 154.05555401908026A11.11111111111111 11.11111111111111 0 0 0 105.55555555555556 154.05555401908026L144.44444444444446 131.83333179685806A11.11111111111111 11.11111111111111 0 0 0 150 122.22222068574693 " fill-opacity="0" stroke-width="18" stroke="#42a7c6" stroke-linecap="round"></path><path d="M125 111.11111296547784V88.88889074325562A5.555555555555555 5.555555555555555 0 0 0 122.22222222222223 84.08333518770006L102.77777777777777 72.97222407658894A5.555555555555555 5.555555555555555 0 0 0 97.22222222222223 72.97222407658894L77.77777777777777 84.08333518770006A5.555555555555555 5.555555555555555 0 0 0 75 88.88889074325562V111.11111296547784A5.555555555555555 5.555555555555555 0 0 0 77.77777777777777 115.9166685210334L97.22222222222223 127.0277796321445A5.555555555555555 5.555555555555555 0 0 0 102.77777777777777 127.0277796321445L122.22222222222223 115.9166685210334A5.555555555555555 5.555555555555555 0 0 0 125 111.11111296547784Z " fill-opacity="0" stroke-width="16" stroke="#60bce9"></path></svg>